<svg width="396" height="138" viewBox="0 0 396 138" fill="none" xmlns="http://www.w3.org/2000/svg">
<path d="M50.4375 109.688V94.25H21.25C19.5417 94.25 17.9375 93.9375 16.4375 93.3125C14.9375 92.6458 13.625 91.7708 12.5 90.6875C11.4167 89.5625 10.5417 88.25 9.875 86.75C9.25 85.25 8.9375 83.6458 8.9375 81.9375V67.75C8.9375 66.0417 9.25 64.4375 9.875 62.9375C10.5417 61.4375 11.4167 60.1458 12.5 59.0625C13.625 57.9375 14.9375 57.0625 16.4375 56.4375C17.9375 55.7708 19.5417 55.4375 21.25 55.4375H60.1875V67.75H21.25V81.9375H50.4375C52.1458 81.9375 53.7292 82.2708 55.1875 82.9375C56.6875 83.5625 58 84.4375 59.125 85.5625C60.25 86.6458 61.125 87.9375 61.75 89.4375C62.4167 90.9375 62.75 92.5417 62.75 94.25V109.688C62.75 111.396 62.4167 113 61.75 114.5C61.125 116 60.25 117.312 59.125 118.438C58 119.521 56.6875 120.396 55.1875 121.062C53.7292 121.688 52.1458 122 50.4375 122H8.9375V109.688H50.4375ZM140.875 122H128.562V67.75H94.25V122H82V29.8125H94.25V67.1875C94.3333 65.5625 94.7083 64.0417 95.375 62.625C96.0417 61.1667 96.9167 59.9167 98 58.875C99.125 57.7917 100.417 56.9583 101.875 56.375C103.333 55.75 104.896 55.4375 106.562 55.4375H128.562C130.271 55.4375 131.875 55.7708 133.375 56.4375C134.875 57.0625 136.167 57.9375 137.25 59.0625C138.375 60.1458 139.25 61.4375 139.875 62.9375C140.542 64.4375 140.875 66.0417 140.875 67.75V122ZM218.938 109.688C218.938 111.396 218.604 113 217.938 114.5C217.312 116 216.438 117.312 215.312 118.438C214.229 119.521 212.938 120.396 211.438 121.062C209.979 121.688 208.396 122 206.688 122H173.625C171.958 122 170.375 121.688 168.875 121.062C167.375 120.396 166.062 119.521 164.938 118.438C163.854 117.312 162.979 116 162.312 114.5C161.688 113 161.375 111.396 161.375 109.688V67.75C161.375 66.0417 161.688 64.4375 162.312 62.9375C162.979 61.4375 163.854 60.1458 164.938 59.0625C166.062 57.9375 167.375 57.0625 168.875 56.4375C170.375 55.7708 171.958 55.4375 173.625 55.4375H206.688C208.396 55.4375 209.979 55.7708 211.438 56.4375C212.938 57.0625 214.229 57.9375 215.312 59.0625C216.438 60.1458 217.312 61.4375 217.938 62.9375C218.604 64.4375 218.938 66.0417 218.938 67.75V109.688ZM173.625 67.75V109.688H206.688V67.75H173.625ZM235.625 55.4375H251.875V34.9375H264.188V55.4375H286.062V67.75H264.188V109.688H286.062V122H264.188C262.521 122 260.938 121.688 259.438 121.062C257.938 120.396 256.625 119.521 255.5 118.438C254.375 117.312 253.479 116 252.812 114.5C252.188 113 251.875 111.396 251.875 109.688V67.75H235.625V55.4375Z" fill="white"/>
<path d="M334.75 122L300.188 32.375H313.938L341.812 106.125L369.75 32.375H383.438L348.875 122H334.75Z" fill="#CCCCCC"/>
<circle cx="304.5" cy="17.5" r="17.5" fill="white"/>
<circle cx="378.5" cy="17.5" r="17.5" fill="white"/>
</svg>
